Coordinates
version=1
nRows=18
nColumns=22
inDegrees=yes

Units are S.I. units (second, meters, Newtons, ...)
If the header above contains a line with 'inDegrees', this indicates whether rotational values are in degrees (yes) or radians (no).

endheader
time	pelvis_tilt	pelvis_list	pelvis_rotation	pelvis_tx	pelvis_ty	pelvis_tz	hip_flexion_r	hip_adduction_r	hip_rotation_r	knee_angle_r	ankle_angle_r	subtalar_angle_r	hip_flexion_l	hip_adduction_l	hip_rotation_l	knee_angle_l	ankle_angle_l	subtalar_angle_l	lumbar_extension	lumbar_bending	lumbar_rotation
      1.42000000	     -2.93473013	     -5.69631285	      9.96201197	      1.03304615	      0.96841211	     -0.30697784	     10.40674266	      6.28125174	     -9.11718796	    -14.76601283	      6.32553027	      0.17398380	     14.03677293	     -6.42387019	     11.64915543	    -20.51452832	     12.04880424	      6.13469721	     -0.68464221	      6.39818449	     -6.24493279
      1.43000000	     -2.94317100	     -5.70483400	     10.11950694	      1.03001806	      0.96843368	     -0.30695641	     10.58561210	      6.23603437	     -9.27467917	    -14.71181775	      6.14132873	      0.21729717	     14.19503782	     -6.41254442	     11.76741664	    -21.21169841	     12.51942900	      6.12793280	     -0.76536133	      6.45057927	     -6.19786954
      1.44000000	     -2.94020844	     -5.73623634	     10.24538147	      1.02702531	      0.96843612	     -0.30688273	     10.75565159	      6.22040690	     -9.42923436	    -14.66024233	      5.98241634	      0.25621822	     14.31664783	     -6.45349175	     11.78387280	    -21.97168082	     12.97389961	      6.05812648	     -0.83518932	      6.52046011	     -6.12362694
      1.45000000	     -2.92275866	     -5.77639417	     10.34011811	      1.02406592	      0.96843424	     -0.30675688	     10.91391801	      6.22120206	     -9.57503201	    -14.61535461	      5.84186469	      0.29054032	     14.38185639	     -6.53430844	     11.71276544	    -22.76464340	     13.40050994	      5.95934574	     -0.90296430	      6.59045565	     -6.02529521
      1.46000000	     -2.93048651	     -5.84503439	     10.42303946	      1.02108588	      0.96837734	     -0.30663491	     11.10393450	      6.24734811	     -9.70059895	    -14.56546070	      5.66981565	      0.33336921	     14.45517326	     -6.65652351	     11.59443136	    -23.60377539	     13.77714373	      5.85053604	     -0.92007056	      6.68325431	     -5.95525011
      1.47000000	     -2.96822058	     -5.92110797	     10.49485210	      1.01808786	      0.96826602	     -0.30649340	     11.32924396	      6.27730533	     -9.79880232	    -14.51664511	      5.48150461	      0.38794552	     14.52600028	     -6.79896996	     11.45218093	    -24.46240283	     14.08642319	      5.74278156	     -0.88661203	      6.76679791	     -5.92303701
      1.48000000	     -2.96412021	     -5.99110619	     10.53743939	      1.01513527	      0.96818881	     -0.30636646	     11.52135772	      6.30651253	     -9.90159719	    -14.49676807	      5.33407460	      0.43831819	     14.48278450	     -6.96620261	     11.27578100	    -25.29336475	     14.38997948	      5.65263146	     -0.88461680	      6.84817671	     -5.85275932
      1.49000000	     -2.99449312	     -6.07269932	     10.58680816	      1.01214098	      0.96805803	     -0.30628917	     11.74939162	      6.33822419	     -9.97406109	    -14.46705097	      5.15272566	      0.51870082	     14.44516814	     -7.14374963	     11.12460034	    -26.12791093	     14.63454662	      5.59312211	     -0.82581352	      6.93240290	     -5.84677692
      1.50000000	     -2.99668204	     -6.14658942	     10.62597478	      1.00915791	      0.96795057	     -0.30624530	     11.95588771	      6.36363827	    -10.04552781	    -14.45843518	      4.99325279	      0.60148928	     14.31553635	     -7.33002646	     10.99006925	    -26.92682820	     14.86781187	      5.57811202	     -0.78678910	      7.00784220	     -5.84220246
      1.51000000	     -2.99180044	     -6.21576822	     10.66959980	      1.00616279	      0.96784270	     -0.30626789	     12.15901795	      6.37941519	    -10.11695400	    -14.45959195	      4.83549544	      0.69430759	     14.12815347	     -7.51492066	     10.89324435	    -27.69663006	     15.08102167	      5.61896628	     -0.74195273	      7.07751680	     -5.86692857
      1.52000000	     -2.97130592	     -6.27632375	     10.71419441	      1.00315571	      0.96774366	     -0.30635420	     12.35423625	      6.38194272	    -10.19900031	    -14.48017403	      4.69042180	      0.77943357	     13.86927837	     -7.69449046	     10.84259702	    -28.42836944	     15.28012704	      5.69005697	     -0.70463085	      7.13783703	     -5.89421976
      1.53000000	     -2.96148199	     -6.32964248	     10.78126203	      1.00011221	      0.96762831	     -0.30653105	     12.55166557	      6.36723364	    -10.27529565	    -14.48438986	      4.53025597	      0.90705051	     13.58910196	     -7.85961827	     10.83878760	    -29.14223677	     15.44846295	      5.89653437	     -0.64286274	      7.18733438	     -5.99726779
      1.54000000	     -2.92781820	     -6.36613380	     10.83241582	      0.99705067	      0.96752971	     -0.30675136	     12.74217481	      6.33472382	    -10.37030493	    -14.52747922	      4.39164921	      0.98853468	     13.22165476	     -8.01272227	     10.86464781	    -29.80889978	     15.60534061	      6.03587795	     -0.60473227	      7.21934406	     -6.06337530
      1.55000000	     -2.90416576	     -6.39103248	     10.90344725	      0.99393227	      0.96741543	     -0.30705400	     12.93056949	      6.28270802	    -10.44877322	    -14.54716215	      4.23960885	      1.10099465	     12.83972654	     -8.14832256	     10.92015500	    -30.46296747	     15.72567962	      6.30741899	     -0.54745624	      7.23547068	     -6.19954087
      1.56000000	     -2.87209594	     -6.40696518	     10.96319976	      0.99076096	      0.96729556	     -0.30739607	     13.12857130	      6.21854243	    -10.54036497	    -14.59818335	      4.09548034	      1.17864028	     12.40520997	     -8.27489022	     10.99793227	    -31.08513998	     15.82792430	      6.50653622	     -0.49813202	      7.23957946	     -6.30935632
      1.57000000	     -2.84813783	     -6.39498855	     10.99769124	      0.98752836	      0.96716604	     -0.30778322	     13.34265312	      6.12250614	    -10.60321254	    -14.66717061	      3.93064515	      1.22020045	     11.93624156	     -8.37597849	     11.04226592	    -31.68055702	     15.89273068	      6.58632697	     -0.44323490	      7.21237468	     -6.40021028
      1.58000000	     -2.80765316	     -6.41841168	     11.09472012	      0.98419814	      0.96702278	     -0.30827765	     13.54451987	      6.05148800	    -10.72142132	    -14.72245045	      3.79009005	      1.29546253	     11.46312147	     -8.49640327	     11.19805281	    -32.28693309	     15.96101911	      6.85576898	     -0.38941981	      7.22228024	     -6.55462594
      1.59000000	     -2.77835236	     -6.41392532	     11.15620874	      0.98079555	      0.96686728	     -0.30879745	     13.76230855	      5.95389018	    -10.77286540	    -14.78940679	      3.63918200	      1.36446371	     10.97484467	     -8.59880331	     11.27154049	    -32.88586304	     16.01554744	      7.14769116	     -0.32869863	      7.20047512	     -6.69155533
